<svg width="1611" height="2278" viewBox="0 0 1611 2278" fill="none" xmlns="http://www.w3.org/2000/svg">
<path d="M207 0.5C104.667 1.33333 -73.3 35.8 33.5 167C167 331 36 526 366.5 455.5C697 385 1013.5 415 849.5 532.5C685.5 650 544.5 783.5 772 868C999.5 952.5 1117.5 905.5 1218 919.5C1298.4 930.7 1335.83 1043.17 1344.5 1098C1281.33 1078.5 1147.9 1055.4 1119.5 1119C1091.1 1182.6 851 1254.83 734.5 1283C345.833 1340.17 -300.1 1492.5 225.5 1644.5C751.1 1796.5 1168.5 1892.17 1311.5 1921C1486.67 1924.17 1769 1953 1497 2043C1157 2155.5 -484.5 2087.5 474.5 2277.5" stroke="black"/>
</svg>
